<?xml version="1.0" standalone="no"?>
<!DOCTYPE svg PUBLIC "-//W3C//DTD SVG 20010904//EN"
 "http://www.w3.org/TR/2001/REC-SVG-20010904/DTD/svg10.dtd">
<svg version="1.0" xmlns="http://www.w3.org/2000/svg"
 width="700.000000pt" height="700.000000pt" viewBox="0 0 700.000000 700.000000"
 preserveAspectRatio="xMidYMid meet">
<metadata>
Created by potrace 1.11, written by Peter Selinger 2001-2013
</metadata>
<g transform="translate(0.000000,700.000000) scale(0.100000,-0.100000)"
fill="#000000" stroke="none">
<path d="M3320 6989 c-513 -24 -1027 -168 -1485 -416 -500 -271 -933 -669
-1250 -1148 -415 -627 -606 -1329 -573 -2100 22 -516 165 -1028 415 -1490 271
-500 669 -933 1148 -1250 347 -230 701 -384 1100 -480 136 -33 367 -75 413
-75 l22 0 0 910 0 910 -576 0 c-557 0 -575 1 -572 19 5 30 1532 4301 1538
4301 6 0 1533 -4271 1538 -4301 3 -18 -15 -19 -572 -19 l-576 0 0 -910 0 -910
23 0 c45 0 276 42 412 75 399 96 753 250 1100 480 479 317 877 750 1148 1250
250 462 393 974 415 1490 33 771 -158 1473 -573 2100 -317 479 -750 877 -1250
1148 -445 241 -974 392 -1440 412 -71 3 -155 7 -185 9 -30 1 -129 -1 -220 -5z"/>
</g>
</svg>
